<?xml version="1.0" encoding="utf-8"?>
<!-- Generator: Adobe Illustrator 23.0.6, SVG Export Plug-In . SVG Version: 6.00 Build 0)  -->
<svg version="1.1" id="Layer_1" xmlns="http://www.w3.org/2000/svg" xmlns:xlink="http://www.w3.org/1999/xlink" x="0px" y="0px"
	 viewBox="0 0 210 210" style="enable-background:new 0 0 210 210;" xml:space="preserve">
<style type="text/css">
	.st0{fill:#E8E8E8;}
	.st1{fill:#347CC4;}
	.st2{fill:#1DE3C9;}
	.st3{fill:#F9FA31;}
	.st4{fill:#F9FAFB;}
	.st5{fill:#EBEBEB;}
	.st6{fill:#3C3C3C;}
	.st7{fill:#FCC083;}
	.st8{fill:#E8AA63;}
	.st9{fill:#ECEDED;}
	.st10{opacity:0.35;}
	.st11{fill:#7D7D7D;}
	.st12{fill:#3F5582;}
	.st13{fill:#353535;}
	.st14{fill:#1F2225;}
	.st15{fill:#E3E3E3;}
	.st16{fill:#ADB1B1;}
	.st17{fill:#C5C5C5;}
	.st18{fill:#F0F0F0;}
	.st19{fill:#CBCBCB;}
	.st20{fill:#4F4840;}
	.st21{fill:#FFB842;}
	.st22{opacity:0.35;fill:#C5C5C5;}
</style>
<g>
	<g>
		<g>
			<g>
				<rect x="5.31" y="73.16" class="st0" width="96.36" height="80.63"/>
			</g>
			<g>
				<g>
					<rect x="10.42" y="88.2" class="st1" width="86.48" height="59.83"/>
				</g>
				<g>
					<rect x="10.42" y="77.53" class="st1" width="86.48" height="7.18"/>
				</g>
				<g>
					<g>
						<rect x="16.93" y="90.67" class="st2" width="5.48" height="1.79"/>
					</g>
					<g>
						<rect x="16.93" y="108.58" class="st2" width="5.48" height="1.79"/>
					</g>
					<g>
						<rect x="20.5" y="93.52" class="st3" width="5.48" height="1.79"/>
					</g>
					<g>
						<rect x="26.81" y="93.52" class="st3" width="5.48" height="1.79"/>
					</g>
					<g>
						<rect x="33.12" y="93.52" class="st4" width="5.48" height="1.79"/>
					</g>
					<g>
						<rect x="39.43" y="93.52" class="st4" width="5.48" height="1.79"/>
					</g>
					<g>
						<rect x="46.34" y="93.52" class="st4" width="9.64" height="1.79"/>
					</g>
					<g>
						<rect x="23.24" y="96.5" class="st3" width="5.48" height="1.79"/>
					</g>
					<g>
						<rect x="29.55" y="96.5" class="st3" width="5.48" height="1.79"/>
					</g>
					<g>
						<rect x="35.86" y="96.5" class="st4" width="5.48" height="1.79"/>
					</g>
					<g>
						<rect x="42.17" y="96.5" class="st4" width="5.48" height="1.79"/>
					</g>
					<g>
						<rect x="23.24" y="102.6" class="st3" width="5.48" height="1.79"/>
					</g>
					<g>
						<rect x="29.55" y="102.6" class="st3" width="5.48" height="1.79"/>
					</g>
					<g>
						<rect x="35.86" y="102.6" class="st4" width="5.48" height="1.79"/>
					</g>
					<g>
						<rect x="42.17" y="102.6" class="st4" width="5.48" height="1.79"/>
					</g>
					<g>
						<rect x="49.08" y="102.6" class="st4" width="9.64" height="1.79"/>
					</g>
					<g>
						<rect x="20.5" y="105.67" class="st3" width="5.48" height="1.79"/>
					</g>
					<g>
						<rect x="26.81" y="105.67" class="st3" width="5.48" height="1.79"/>
					</g>
					<g>
						<rect x="33.12" y="105.67" class="st4" width="5.48" height="1.79"/>
					</g>
					<g>
						<rect x="39.43" y="105.67" class="st4" width="5.48" height="1.79"/>
					</g>
					<g>
						<rect x="25.98" y="99.48" class="st3" width="5.48" height="1.79"/>
					</g>
					<g>
						<rect x="32.29" y="99.48" class="st3" width="5.48" height="1.79"/>
					</g>
					<g>
						<rect x="38.6" y="99.48" class="st4" width="5.48" height="1.79"/>
					</g>
					<g>
						<rect x="44.91" y="99.48" class="st4" width="5.48" height="1.79"/>
					</g>
					<g>
						<rect x="51.81" y="99.48" class="st4" width="9.64" height="1.79"/>
					</g>
					<g>
						<rect x="16.93" y="112.69" class="st2" width="5.48" height="1.79"/>
					</g>
					<g>
						<rect x="16.93" y="130.61" class="st2" width="5.48" height="1.79"/>
					</g>
					<g>
						<rect x="20.5" y="115.55" class="st3" width="5.48" height="1.79"/>
					</g>
					<g>
						<rect x="26.81" y="115.55" class="st3" width="5.48" height="1.79"/>
					</g>
					<g>
						<rect x="33.12" y="115.55" class="st4" width="5.48" height="1.79"/>
					</g>
					<g>
						<rect x="39.43" y="115.55" class="st4" width="5.48" height="1.79"/>
					</g>
					<g>
						<rect x="46.34" y="115.55" class="st4" width="9.64" height="1.79"/>
					</g>
					<g>
						<rect x="23.24" y="118.53" class="st3" width="5.48" height="1.79"/>
					</g>
					<g>
						<rect x="29.55" y="118.53" class="st3" width="5.48" height="1.79"/>
					</g>
					<g>
						<rect x="35.86" y="118.53" class="st4" width="5.48" height="1.79"/>
					</g>
					<g>
						<rect x="42.17" y="118.53" class="st4" width="5.48" height="1.79"/>
					</g>
					<g>
						<rect x="23.24" y="124.63" class="st3" width="5.48" height="1.79"/>
					</g>
					<g>
						<rect x="29.55" y="124.63" class="st3" width="5.48" height="1.79"/>
					</g>
					<g>
						<rect x="35.86" y="124.63" class="st4" width="5.48" height="1.79"/>
					</g>
					<g>
						<rect x="20.5" y="127.69" class="st3" width="5.48" height="1.79"/>
					</g>
					<g>
						<rect x="26.81" y="127.69" class="st3" width="5.48" height="1.79"/>
					</g>
					<g>
						<rect x="33.12" y="127.69" class="st4" width="5.48" height="1.79"/>
					</g>
					<g>
						<rect x="39.43" y="127.69" class="st4" width="5.48" height="1.79"/>
					</g>
					<g>
						<rect x="25.98" y="121.5" class="st3" width="5.48" height="1.79"/>
					</g>
					<g>
						<rect x="32.29" y="121.5" class="st3" width="5.48" height="1.79"/>
					</g>
					<g>
						<rect x="38.6" y="121.5" class="st4" width="5.48" height="1.79"/>
					</g>
					<g>
						<rect x="44.91" y="121.5" class="st4" width="5.48" height="1.79"/>
					</g>
					<g>
						<rect x="51.81" y="121.5" class="st4" width="9.64" height="1.79"/>
					</g>
					<g>
						<rect x="16.93" y="134.72" class="st2" width="5.48" height="1.79"/>
					</g>
					<g>
						<rect x="20.5" y="137.57" class="st3" width="5.48" height="1.79"/>
					</g>
					<g>
						<rect x="26.81" y="137.57" class="st3" width="5.48" height="1.79"/>
					</g>
					<g>
						<rect x="33.12" y="137.57" class="st4" width="5.48" height="1.79"/>
					</g>
					<g>
						<rect x="39.43" y="137.57" class="st4" width="5.48" height="1.79"/>
					</g>
					<g>
						<rect x="46.34" y="137.57" class="st4" width="9.64" height="1.79"/>
					</g>
					<g>
						<rect x="23.24" y="140.55" class="st3" width="5.48" height="1.79"/>
					</g>
					<g>
						<rect x="29.55" y="140.55" class="st3" width="5.48" height="1.79"/>
					</g>
					<g>
						<rect x="35.86" y="140.55" class="st4" width="5.48" height="1.79"/>
					</g>
					<g>
						<rect x="25.98" y="143.53" class="st3" width="5.48" height="1.79"/>
					</g>
					<g>
						<rect x="32.29" y="143.53" class="st3" width="5.48" height="1.79"/>
					</g>
					<g>
						<rect x="38.6" y="143.53" class="st4" width="5.48" height="1.79"/>
					</g>
					<g>
						<rect x="44.91" y="143.53" class="st4" width="5.48" height="1.79"/>
					</g>
					<g>
						<rect x="51.81" y="143.53" class="st4" width="9.64" height="1.79"/>
					</g>
					<g>
						<rect x="62.65" y="121.5" class="st4" width="9.64" height="1.79"/>
					</g>
					<g>
						<rect x="73.48" y="121.5" class="st4" width="9.64" height="1.79"/>
					</g>
				</g>
			</g>
			<g>
				<rect x="90.46" y="79.05" class="st5" width="4.14" height="4.14"/>
			</g>
			<g>
				<rect x="84.11" y="79.05" class="st5" width="4.14" height="4.14"/>
			</g>
			<g>
				<rect x="77.77" y="79.05" class="st5" width="4.14" height="4.14"/>
			</g>
			<g>
				<rect x="12.79" y="79.05" class="st5" width="4.14" height="4.14"/>
			</g>
		</g>
		<g>
			<g>
				<rect x="107.98" y="23.94" class="st0" width="96.36" height="80.63"/>
			</g>
			<g>
				<g>
					<rect x="113.09" y="38.97" class="st1" width="86.48" height="59.83"/>
				</g>
				<g>
					<rect x="113.09" y="28.31" class="st1" width="86.48" height="7.18"/>
				</g>
				<g>
					<g>
						<rect x="119.6" y="41.44" class="st2" width="5.48" height="1.79"/>
					</g>
					<g>
						<rect x="119.6" y="59.36" class="st2" width="5.48" height="1.79"/>
					</g>
					<g>
						<rect x="123.17" y="44.3" class="st3" width="5.48" height="1.79"/>
					</g>
					<g>
						<rect x="129.48" y="44.3" class="st3" width="5.48" height="1.79"/>
					</g>
					<g>
						<rect x="135.79" y="44.3" class="st4" width="5.48" height="1.79"/>
					</g>
					<g>
						<rect x="142.1" y="44.3" class="st4" width="5.48" height="1.79"/>
					</g>
					<g>
						<rect x="149.01" y="44.3" class="st4" width="9.64" height="1.79"/>
					</g>
					<g>
						<rect x="125.91" y="47.28" class="st3" width="5.48" height="1.79"/>
					</g>
					<g>
						<rect x="132.22" y="47.28" class="st3" width="5.48" height="1.79"/>
					</g>
					<g>
						<rect x="138.53" y="47.28" class="st4" width="5.48" height="1.79"/>
					</g>
					<g>
						<rect x="144.84" y="47.28" class="st4" width="5.48" height="1.79"/>
					</g>
					<g>
						<rect x="125.91" y="53.38" class="st3" width="5.48" height="1.79"/>
					</g>
					<g>
						<rect x="132.22" y="53.38" class="st3" width="5.48" height="1.79"/>
					</g>
					<g>
						<rect x="138.53" y="53.38" class="st4" width="5.48" height="1.79"/>
					</g>
					<g>
						<rect x="144.84" y="53.38" class="st4" width="5.48" height="1.79"/>
					</g>
					<g>
						<rect x="151.75" y="53.38" class="st4" width="9.64" height="1.79"/>
					</g>
					<g>
						<rect x="123.17" y="56.44" class="st3" width="5.48" height="1.79"/>
					</g>
					<g>
						<rect x="129.48" y="56.44" class="st3" width="5.48" height="1.79"/>
					</g>
					<g>
						<rect x="135.79" y="56.44" class="st4" width="5.48" height="1.79"/>
					</g>
					<g>
						<rect x="142.1" y="56.44" class="st4" width="5.48" height="1.79"/>
					</g>
					<g>
						<rect x="128.65" y="50.25" class="st3" width="5.48" height="1.79"/>
					</g>
					<g>
						<rect x="134.96" y="50.25" class="st3" width="5.48" height="1.79"/>
					</g>
					<g>
						<rect x="141.27" y="50.25" class="st4" width="5.48" height="1.79"/>
					</g>
					<g>
						<rect x="147.58" y="50.25" class="st4" width="5.48" height="1.79"/>
					</g>
					<g>
						<rect x="154.48" y="50.25" class="st4" width="9.64" height="1.79"/>
					</g>
					<g>
						<rect x="119.6" y="63.47" class="st2" width="5.48" height="1.79"/>
					</g>
					<g>
						<rect x="119.6" y="81.39" class="st2" width="5.48" height="1.79"/>
					</g>
					<g>
						<rect x="123.17" y="66.33" class="st3" width="5.48" height="1.79"/>
					</g>
					<g>
						<rect x="129.48" y="66.33" class="st3" width="5.48" height="1.79"/>
					</g>
					<g>
						<rect x="135.79" y="66.33" class="st4" width="5.48" height="1.79"/>
					</g>
					<g>
						<rect x="142.1" y="66.33" class="st4" width="5.48" height="1.79"/>
					</g>
					<g>
						<rect x="149.01" y="66.33" class="st4" width="9.64" height="1.79"/>
					</g>
					<g>
						<rect x="125.91" y="69.3" class="st3" width="5.48" height="1.79"/>
					</g>
					<g>
						<rect x="132.22" y="69.3" class="st3" width="5.48" height="1.79"/>
					</g>
					<g>
						<rect x="138.53" y="69.3" class="st4" width="5.48" height="1.79"/>
					</g>
					<g>
						<rect x="144.84" y="69.3" class="st4" width="5.48" height="1.79"/>
					</g>
					<g>
						<rect x="125.91" y="75.4" class="st3" width="5.48" height="1.79"/>
					</g>
					<g>
						<rect x="132.22" y="75.4" class="st3" width="5.48" height="1.79"/>
					</g>
					<g>
						<rect x="138.53" y="75.4" class="st4" width="5.48" height="1.79"/>
					</g>
					<g>
						<rect x="123.17" y="78.47" class="st3" width="5.48" height="1.79"/>
					</g>
					<g>
						<rect x="129.48" y="78.47" class="st3" width="5.48" height="1.79"/>
					</g>
					<g>
						<rect x="135.79" y="78.47" class="st4" width="5.48" height="1.79"/>
					</g>
					<g>
						<rect x="142.1" y="78.47" class="st4" width="5.48" height="1.79"/>
					</g>
					<g>
						<rect x="128.65" y="72.28" class="st3" width="5.48" height="1.79"/>
					</g>
					<g>
						<rect x="134.96" y="72.28" class="st3" width="5.48" height="1.79"/>
					</g>
					<g>
						<rect x="141.27" y="72.28" class="st4" width="5.48" height="1.79"/>
					</g>
					<g>
						<rect x="147.58" y="72.28" class="st4" width="5.48" height="1.79"/>
					</g>
					<g>
						<rect x="154.48" y="72.28" class="st4" width="9.64" height="1.79"/>
					</g>
					<g>
						<rect x="119.6" y="85.49" class="st2" width="5.48" height="1.79"/>
					</g>
					<g>
						<rect x="123.17" y="88.35" class="st3" width="5.48" height="1.79"/>
					</g>
					<g>
						<rect x="129.48" y="88.35" class="st3" width="5.48" height="1.79"/>
					</g>
					<g>
						<rect x="135.79" y="88.35" class="st4" width="5.48" height="1.79"/>
					</g>
					<g>
						<rect x="142.1" y="88.35" class="st4" width="5.48" height="1.79"/>
					</g>
					<g>
						<rect x="149.01" y="88.35" class="st4" width="9.64" height="1.79"/>
					</g>
					<g>
						<rect x="125.91" y="91.33" class="st3" width="5.48" height="1.79"/>
					</g>
					<g>
						<rect x="132.22" y="91.33" class="st3" width="5.48" height="1.79"/>
					</g>
					<g>
						<rect x="138.53" y="91.33" class="st4" width="5.48" height="1.79"/>
					</g>
					<g>
						<rect x="128.65" y="94.3" class="st3" width="5.48" height="1.79"/>
					</g>
					<g>
						<rect x="134.96" y="94.3" class="st3" width="5.48" height="1.79"/>
					</g>
					<g>
						<rect x="141.27" y="94.3" class="st4" width="5.48" height="1.79"/>
					</g>
					<g>
						<rect x="147.58" y="94.3" class="st4" width="5.48" height="1.79"/>
					</g>
					<g>
						<rect x="154.48" y="94.3" class="st4" width="9.64" height="1.79"/>
					</g>
					<g>
						<rect x="165.32" y="72.28" class="st4" width="9.64" height="1.79"/>
					</g>
					<g>
						<rect x="176.15" y="72.28" class="st4" width="9.64" height="1.79"/>
					</g>
				</g>
			</g>
			<g>
				<rect x="193.13" y="29.83" class="st5" width="4.14" height="4.14"/>
			</g>
			<g>
				<rect x="186.78" y="29.83" class="st5" width="4.14" height="4.14"/>
			</g>
			<g>
				<rect x="180.44" y="29.83" class="st5" width="4.14" height="4.14"/>
			</g>
			<g>
				<rect x="115.46" y="29.83" class="st5" width="4.14" height="4.14"/>
			</g>
		</g>
		<g>
			<g>
				<path class="st6" d="M118.68,16.73c-2.64-1.15-10.39-2.65-13.94-2.68c-3.55,0.03-11.3,1.53-13.94,2.68
					C78.52,22.07,78.37,32.45,78.37,48.6h26.37h26.37C131.11,32.45,130.96,22.07,118.68,16.73z"/>
			</g>
			<g>
				<path class="st7" d="M115.24,80.98H106h-1.97H94.8c0,0,3.12,17.76-11.75,32.45l20.99,25.36H106l20.99-25.36
					C112.12,98.74,115.24,80.98,115.24,80.98z"/>
			</g>
			<g>
				<path class="st8" d="M94.8,80.98h9.24h1.97h9.24c0,0-1.51,8.65,2.62,18.87c-8.54-3.33-15.35-10.36-22.86-16.81
					C94.93,81.73,94.8,80.98,94.8,80.98z"/>
			</g>
			<g>
				<path class="st9" d="M93.69,95.34c-1.51,5.6-4.58,12.1-10.65,18.08l20.99,25.36H106l20.99-25.36
					c-6.06-5.99-9.14-12.49-10.65-18.08l-11.22,6.2L93.69,95.34z"/>
			</g>
			<g>
				<path class="st7" d="M131.95,47.41c-0.79-2.03-2.17-0.98-3.24,0.36c0.31-15.79-8.03-23.81-8.03-23.81h-15.66H89.36
					c0,0-8.39,8-8.13,23.7c-1.06-1.28-2.38-2.22-3.14-0.24c-1.42,3.67,1.92,8.7,1.28,13.8c-0.43,3.45,2.29,3.1,4.01,2.14
					c0.65,2.61,1.61,5.68,3.16,9.28c3.27,7.61,12.67,14.55,18.44,14.55c5.76,0,15.02-6.99,18.43-14.55
					c1.57-3.47,2.55-6.36,3.17-9.33c1.72,1,4.53,1.41,4.09-2.09C130.03,56.12,133.37,51.08,131.95,47.41z"/>
			</g>
			<g class="st10">
				<polygon class="st11" points="121.53,98.61 115.57,95.13 105.12,101.54 94.68,95.13 88.72,98.61 98.98,113.17 105.12,104.04 
					111.26,113.17 				"/>
			</g>
			<g>
				<polygon class="st9" points="105.12,101.54 111.26,109.9 121.09,95.34 115.57,91.86 				"/>
			</g>
			<g>
				<polygon class="st9" points="105.12,101.54 98.98,109.9 88.97,95.71 94.47,91.86 				"/>
			</g>
			<g>
				<path class="st12" d="M151.42,107.66c-3.98-7.25-34.38-14.57-34.38-14.57c0,0,0,0.05,0.01,0.11l-0.38-0.11
					c0,0.04,1,10.07-3.68,24.4c-1.55,4.75-3.3,9.58-4.81,13.61c-0.6,1.59-3.05,8.19-3.05,8.19s-3.01-6.6-3.6-8.19
					c-1.52-4.03-3.26-8.86-4.81-13.61c-4.68-14.33-3.68-24.36-3.68-24.4l-0.38,0.11c0-0.06,0.01-0.11,0.01-0.11
					c0,0-30.4,7.32-34.38,14.57c-1.44,2.63-5.87,28.46-8.85,42.4c-2.04,9.54,2.67,16.89,11.35,21.33l5.81,2.97h75.81l6.22-3.06
					c8.85-4.36,13.7-11.83,11.63-21.47C157.24,135.95,152.86,110.27,151.42,107.66z"/>
			</g>
			<g>
				<path class="st6" d="M84.87,25.22c0,0,16.12,33.67,43.4,0.9C128.28,26.13,105.84,4.75,84.87,25.22z"/>
			</g>
			<g>
				<path class="st6" d="M86.33,60.79c-1.13-9.74-2.09-32.54,12.5-38.9l-4.47-2.16c0,0-13.05,2.64-14.25,22.79l3.5,21.28h0.03
					C85.26,63.8,86.51,62.4,86.33,60.79z"/>
			</g>
			<g>
				<path class="st6" d="M126.22,63.8h0.14l3.48-21.14c-1.2-20.16-14.25-22.8-14.25-22.8l-4.47,2.16
					c14.58,6.35,13.63,29.12,12.5,38.88C123.45,62.45,124.66,63.8,126.22,63.8z"/>
			</g>
			<g>
				<path class="st13" d="M113.47,48.13c-0.71,0.17-1.36,0.32-1.96,0.46c-4.2,0.98-8.57,0.98-12.77,0c-0.6-0.14-1.25-0.29-1.96-0.46
					c-6.44-1.51-10.73-0.4-11.28,0.48c0,0,0,2.94,0,2.94c0-0.21,0.98,0.67,1.01,0.72c0.78,1.51,1,2.91,1.53,4.42
					c0.88,2.48,3.05,3.75,5.63,4.13c0.89,0.13,1.82,0.15,2.72,0.09c1.91-0.14,3.68-0.86,4.61-2.01c0.67-0.83,1.6-2.23,3.04-5.68
					c0.18-0.44,0.61-0.72,1.08-0.72h0.02c0.47,0,0.9,0.28,1.08,0.72c1.44,3.44,2.37,4.85,3.04,5.68c0.93,1.15,2.7,1.87,4.61,2.01
					c0.9,0.07,1.83,0.05,2.72-0.09c2.58-0.38,4.75-1.65,5.63-4.13c0.53-1.51,0.75-2.92,1.53-4.42c0.02-0.05,1.01-0.93,1.01-0.72
					l0-2.94C124.19,47.73,119.9,46.62,113.47,48.13z M101.43,55.08c-0.21,1.43-1.09,3.27-2.99,4.28c-1.86,0.99-6.04,0.27-7.23-0.46
					c-3.57-2.18-3.12-6.8-2.5-8.43c0.34-0.91,0.99-1.3,1.45-1.47c1.96-0.72,5.54-0.12,8.14,0.49
					C101.46,50.23,101.84,52.25,101.43,55.08z M119.03,58.9c-1.18,0.72-5.36,1.45-7.23,0.46c-1.9-1.01-2.78-2.85-2.99-4.28
					c-0.41-2.82-0.03-4.84,3.12-5.59c2.61-0.62,6.18-1.22,8.14-0.49c0.47,0.17,1.11,0.56,1.46,1.47
					C122.15,52.1,122.6,56.71,119.03,58.9z"/>
			</g>
			<g>
				<g>
					<rect x="73.25" y="169.48" class="st14" width="62.46" height="3.34"/>
				</g>
				<g>
					<path class="st6" d="M139.37,114.18H69.58c-1.66,0-3.01,1.35-3.01,3.01v1.31v48.93c0,1.66,1.35,3.01,3.01,3.01h69.78
						c1.66,0,3.01-1.35,3.01-3.01V118.5v-1.31C142.38,115.53,141.03,114.18,139.37,114.18z"/>
				</g>
				<g>
					<rect x="67.76" y="171.87" class="st6" width="73.42" height="3.93"/>
				</g>
				<g>
					<path class="st15" d="M107.35,142.31c0,1.59-1.29,2.88-2.88,2.88c-1.59,0-2.88-1.29-2.88-2.88c0-1.59,1.29-2.88,2.88-2.88
						C106.07,139.43,107.35,140.72,107.35,142.31z"/>
				</g>
			</g>
		</g>
		<g>
			<rect x="20.18" y="175.8" class="st16" width="169.29" height="83.56"/>
		</g>
		<g>
			<polygon class="st17" points="189.46,259.36 189.46,182.85 17.09,182.85 86.89,259.36 			"/>
		</g>
		<g>
			<rect x="5.31" y="175.8" class="st9" width="199.03" height="15.32"/>
		</g>
		<g>
			<g>
				<g>
					<path class="st6" d="M36.14,3.74c-13.99,0-25.32,11.34-25.32,25.32c0,13.99,11.34,25.32,25.32,25.32
						c13.98,0,25.32-11.33,25.32-25.32C61.45,15.08,50.12,3.74,36.14,3.74z"/>
				</g>
			</g>
			<g>
				<g>
					<g>
						<path class="st18" d="M36.14,9.89c-10.68,0-19.33,8.65-19.33,19.32c0,7.64,4.44,14.24,10.87,17.37
							c2.55,1.25,5.42,1.95,8.45,1.95c10.67,0,19.32-8.65,19.32-19.32c0-4.74-1.7-9.07-4.54-12.44
							C47.38,12.57,42.07,9.89,36.14,9.89z"/>
					</g>
				</g>
				<g>
					<g>
						<path class="st19" d="M36.14,9.89c-10.68,0-19.33,8.65-19.33,19.32c0,6.5,3.22,12.24,8.14,15.74c-2.24-3.15-3.57-7-3.57-11.17
							c0-10.67,8.65-19.32,19.33-19.32c4.17,0,8.03,1.33,11.19,3.57c-0.31-0.43-0.63-0.85-0.97-1.26
							C47.38,12.57,42.07,9.89,36.14,9.89z"/>
					</g>
				</g>
				<g>
					<g>
						<path class="st20" d="M36.14,11.9c-0.22,0-0.39,0.08-0.39,0.19v5.41c0,0.11,0.18,0.19,0.39,0.19c0.21,0,0.39-0.09,0.39-0.19
							v-5.41C36.52,11.98,36.35,11.9,36.14,11.9z"/>
					</g>
				</g>
				<g>
					<g>
						<path class="st20" d="M36.14,41.1c-0.22,0-0.39,0.09-0.39,0.19v5.41c0,0.11,0.18,0.19,0.39,0.19c0.21,0,0.39-0.09,0.39-0.19
							V41.3C36.52,41.19,36.35,41.1,36.14,41.1z"/>
					</g>
				</g>
				<g>
					<g>
						<path class="st20" d="M53.62,29.01h-5.41c-0.1,0-0.19,0.17-0.19,0.39c0,0.22,0.09,0.39,0.19,0.39h5.41
							c0.11,0,0.19-0.17,0.19-0.39C53.81,29.18,53.73,29.01,53.62,29.01z"/>
					</g>
				</g>
				<g>
					<g>
						<path class="st20" d="M24.14,29.01h-5.41c-0.1,0-0.19,0.17-0.19,0.39c0,0.22,0.09,0.39,0.19,0.39h5.41
							c0.11,0,0.19-0.17,0.19-0.39C24.33,29.18,24.24,29.01,24.14,29.01z"/>
					</g>
				</g>
				<g>
					<g>
						<g>
							<polygon class="st21" points="24.71,36.03 24.07,37.08 25.28,36.92 36.52,29.76 35.96,28.87 							"/>
						</g>
					</g>
					<g>
						<g>
							<g>
								<path class="st20" d="M36.17,27.42c-1.03,0.07-1.81,0.95-1.75,1.98c0.06,1.03,0.95,1.81,1.98,1.75
									c1.03-0.06,1.81-0.95,1.75-1.98C38.09,28.14,37.2,27.36,36.17,27.42z"/>
							</g>
						</g>
						<g>
							<g>
								<polygon class="st20" points="29.37,22.24 29.47,23.93 34.54,29.06 36.02,27.57 30.96,22.45 								"/>
							</g>
						</g>
						<g>
							<g>
								<polygon class="st20" points="37.01,28.73 36.59,30.29 49.5,33.73 50.79,33.2 49.92,32.17 								"/>
							</g>
						</g>
					</g>
				</g>
			</g>
		</g>
		<g>
			<g>
				<g>
					<rect x="168.96" y="173.37" class="st17" width="15.3" height="2.44"/>
				</g>
				<g>
					<path class="st17" d="M190.86,159.43c-3.12,0-5.65,2.53-5.65,5.65c0,3.12,2.53,5.65,5.65,5.65c3.12,0,5.65-4.27,5.65-7.39
						C196.51,160.22,193.98,159.43,190.86,159.43z M189.65,168.97c-2.15,0-3.89-1.74-3.89-3.89c0-2.15,1.74-3.89,3.89-3.89
						c2.15,0,3.89,0,3.89,2.15C193.54,165.49,191.8,168.97,189.65,168.97z"/>
				</g>
				<g>
					<path class="st17" d="M163.56,157.54c-0.1,0.69-0.17,1.39-0.17,2.12c0,7.57,5.92,13.71,13.22,13.71
						c7.3,0,13.22-6.14,13.22-13.71c0-0.72-0.07-1.42-0.17-2.12H163.56z"/>
				</g>
			</g>
			<g>
				<g class="st10">
					<path class="st17" d="M178.9,143.74c-1.43-0.96-3.77-0.43-3.77-0.43s4.78,1.28-1.42,3.36c-7.36,2.47-1.79,6.58-1.79,6.58
						c-0.45-2.51,0.1-2.91,0.93-3.36c1.31-0.71,3.99,0.42,6.29-1.64C181.01,146.57,180.2,144.61,178.9,143.74z"/>
				</g>
				<g>
					<path class="st22" d="M183.33,149.94c-0.98-0.65-2.58-0.3-2.58-0.3s3.27,0.88-0.97,2.3c-5.04,1.69-1.23,4.5-1.23,4.5
						c-0.31-1.72,0.07-1.99,0.63-2.3c0.9-0.49,2.73,0.29,4.3-1.12C184.77,151.87,184.22,150.53,183.33,149.94z"/>
				</g>
			</g>
		</g>
	</g>
</g>
</svg>
